<!-- <svg height="512" viewBox="0 0 512 512" width="512" xmlns="http://www.w3.org/2000/svg" xmlns:xlink="http://www.w3.org/1999/xlink"><linearGradient id="a" x1="100%" x2="50%" y1="5.663%" y2="50%"><stop offset="0" stop-color="#007b55"/><stop offset="1" stop-color="#00ab55"/></linearGradient><linearGradient id="b" x1="50%" x2="50%" y1="0%" y2="100%"><stop offset="0" stop-color="#5be584"/><stop offset="1" stop-color="#00ab55"/></linearGradient><g fill="none" fill-rule="evenodd" transform="translate(14 128)"><path d="m92.8065878 83.1065019c44.2888442 22.8889511 46.3079382 23.9345951 46.4006692 23.9799821.012248.008728.642121.333419 44.792743 23.152545-26.071507 48.53952-42.693165 77.265922-49.868472 86.179207-10.758587 13.369926-22.495227 23.492946-36.929824 29.333888-30.3458978 14.261953-68.070062 14.928791-97.201704-2.704011z" fill="url(#a)"/><g fill="url(#b)"><path d="m430.310491 101.726093c-46.270793-80.9559274-94.100378-157.2284394-149.043472-45.3437359-7.516227 14.3833977-12.994566 42.3366008-25.267019 42.3366008v-.1420279c-12.272453 0-17.749057-27.9532032-25.265283-42.3366009-54.94483-111.8847034-102.774415-35.6121915-149.0452076 45.3437359-3.4821132 6.105448-6.8270943 11.9321-9.6895094 16.99601 106.037811-67.1266136 97.11034 135.666494 184 137.277897v.142028c86.891396-1.611403 77.962189-204.4045106 184-137.27965-2.860679-5.062157-6.20566-10.888809-9.689509-16.994257"/><path d="m436 256c26.5088 0 48-21.4912 48-48s-21.4912-48-48-48-48 21.4912-48 48 21.4912 48 48 48"/></g></g></svg> -->

<svg width="467" height="655" viewBox="0 0 467 655" fill="none" xmlns="http://www.w3.org/2000/svg">
<rect width="467" height="655" fill="white"/>
<path d="M0 114.797V0H105.801V79.9617H144.585V0H178.093V79.9617H216.614V0H250.914V79.9617H289.434V0H322.942V79.9617H361.727V0H467V114.797H395.235V157.284H467V506.16L434.02 528.328V191.328H395.235V552.607L361.727 570.024V482.409L323.206 506.16V592.192L289.434 616.734V528.328L250.65 548.648V646.819L233.5 655L216.614 646.819V548.648L178.093 528.328V616.734L144.585 595.359V506.16L105.801 484.784V570.024L72.0288 552.607V191.328H34.0356V527.272L0 506.16V157.284H72.2927V114.797H0Z" fill="black"/>
<path d="M30.5 80V34.5H72V80H30.5Z" fill="white"/>
<path d="M106 184V115H361.5V183.5L276.5 212.5V353H191V212.5L106 184Z" fill="white"/>
<path d="M157.5 238L106 221V441L157.5 472L209 411L157.5 356.5V238Z" fill="white"/>
<path d="M184 489L233.5 436.5L282.5 489L233.5 523L184 489Z" fill="white"/>
<path d="M310.5 356.5L256.5 411L310.5 472L362 441V221L310.5 238V356.5Z" fill="white"/>
<path d="M434 34.5H395.5V79.5H434V34.5Z" fill="white"/>
</svg>
