<svg width="192" height="192" viewBox="0 0 192 192" fill="none" xmlns="http://www.w3.org/2000/svg">
<path fill-rule="evenodd" clip-rule="evenodd" d="M28 0V33.4311H49.0531V45.8045H28V147.404L37.9119 153.553V55.7185H48.9763V160.93L58.8113 166.003V141.179L70.1062 147.404V173.381L79.8644 179.606V153.86L91.0825 159.778V188.367L96 190.749L100.994 188.367V159.778L112.289 153.86V179.606L122.124 172.458V147.404L133.342 140.488V166.003L143.101 160.93V55.7185H154.395V153.86L164 147.404V45.8045H143.101V33.4311H164V0H133.342V23.2865H122.047V0H112.289V23.2865H101.071V0H91.0825V23.2865H79.8644V0H70.1062V23.2865H58.8113V0H28ZM36.8823 10.0471V23.2977H48.9679V10.0471H36.8823ZM58.8694 33.4904V53.5846L83.6232 61.8844V102.801H108.523V61.8844L133.276 53.439V33.4904H58.8694ZM73.8673 69.3105L58.8694 64.3598V128.428L73.8673 137.456L88.8651 119.692L73.8673 103.82V69.3105ZM96 127.118L81.5846 142.407L96 152.308L110.27 142.407L96 127.118ZM118.424 103.82L102.698 119.692L118.424 137.456L133.422 128.428V64.3598L118.424 69.3105V103.82ZM143.178 10.0471H154.39V23.152H143.178V10.0471Z" fill="black"/>
</svg>
