<svg width="467" height="655" viewBox="0 0 467 655" fill="none" xmlns="http://www.w3.org/2000/svg">
<rect width="467" height="655" fill="white"/>
<path d="M0 114.797V0H105.801V79.9617H144.585V0H178.093V79.9617H216.614V0H250.914V79.9617H289.434V0H322.942V79.9617H361.727V0H467V114.797H395.235V157.284H467V506.16L434.02 528.328V191.328H395.235V552.607L361.727 570.024V482.409L323.206 506.16V592.192L289.434 616.734V528.328L250.65 548.648V646.819L233.5 655L216.614 646.819V548.648L178.093 528.328V616.734L144.585 595.359V506.16L105.801 484.784V570.024L72.0288 552.607V191.328H34.0356V527.272L0 506.16V157.284H72.2927V114.797H0Z" fill="black"/>
<path d="M30.5 80V34.5H72V80H30.5Z" fill="white"/>
<path d="M106 184V115H361.5V183.5L276.5 212.5V353H191V212.5L106 184Z" fill="white"/>
<path d="M157.5 238L106 221V441L157.5 472L209 411L157.5 356.5V238Z" fill="white"/>
<path d="M184 489L233.5 436.5L282.5 489L233.5 523L184 489Z" fill="white"/>
<path d="M310.5 356.5L256.5 411L310.5 472L362 441V221L310.5 238V356.5Z" fill="white"/>
<path d="M434 34.5H395.5V79.5H434V34.5Z" fill="white"/>
</svg>
