<svg width="16" height="16" viewBox="0 0 16 16" fill="none" xmlns="http://www.w3.org/2000/svg">
<path fill-rule="evenodd" clip-rule="evenodd" d="M3 0V2.70399H4.70282V3.70477H3V11.9224L3.80169 12.4197V4.50664H4.69661V13.0164L5.49209 13.4267V11.4189L6.40565 11.9224V14.0234L7.19492 14.5269V12.4446L8.10226 12.9232V15.2356L8.5 15.4283L8.90395 15.2356V12.9232L9.81751 12.4446V14.5269L10.613 13.9488V11.9224L11.5203 11.363V13.4267L12.3096 13.0164V4.50664H13.2232V12.4446L14 11.9224V3.70477H12.3096V2.70399H14V0H11.5203V1.88347H10.6068V0H9.81751V1.88347H8.91017V0H8.10226V1.88347H7.19492V0H6.40565V1.88347H5.49209V0H3ZM3.71849 0.812629V1.88436H4.69601V0.812629H3.71849ZM5.49686 2.70877V4.33404L7.49901 5.00535V8.31477H9.51292V5.00535L11.5151 4.32227V2.70877H5.49686ZM6.70993 5.60599L5.49686 5.20556V10.3876L6.70993 11.1178L7.92299 9.68094L6.70993 8.39721V5.60599ZM8.50008 10.2816L7.33412 11.5182L8.50008 12.3191L9.65425 11.5182L8.50008 10.2816ZM10.3138 8.39721L9.04183 9.68094L10.3138 11.1178L11.5268 10.3876V5.20556L10.3138 5.60599V8.39721ZM12.3159 0.812629H13.2228V1.87259H12.3159V0.812629Z" fill="black"/>
</svg>
