<svg width="180" height="180" viewBox="0 0 180 180" fill="none" xmlns="http://www.w3.org/2000/svg">
<path fill-rule="evenodd" clip-rule="evenodd" d="M26 0V31.5471H45.8667V43.2232H26V139.097L35.3533 144.899V52.5786H45.7942V151.861L55.075 156.648V133.223L65.7334 139.097V163.61L74.9416 169.484V145.189L85.5275 150.774V177.752L90.1679 180L94.8808 177.752V150.774L105.539 145.189V169.484L114.82 162.74V139.097L125.406 132.57V156.648L134.614 151.861V52.5786H145.273V145.189L154.336 139.097V43.2232H134.614V31.5471H154.336V0H125.406V21.9742H114.748V0H105.539V21.9742H94.9533V0H85.5275V21.9742H74.9416V0H65.7334V21.9742H55.075V0H26ZM34.3817 9.48092V21.9847H45.7863V9.48092H34.3817ZM55.1298 31.6031V50.5649L78.4885 58.3969V97.0076H101.985V58.3969L125.344 50.4275V31.6031H55.1298ZM69.2824 65.4046L55.1298 60.7328V121.191L69.2824 129.71L83.4351 112.947L69.2824 97.9695V65.4046ZM90.1679 119.954L76.5649 134.382L90.1679 143.725L103.634 134.382L90.1679 119.954ZM111.328 97.9695L96.4885 112.947L111.328 129.71L125.481 121.191V60.7328L111.328 65.4046V97.9695ZM134.687 9.48092H145.267V21.8473H134.687V9.48092Z" fill="black"/>
</svg>
