<svg width="32" height="32" viewBox="0 0 32 32" fill="none" xmlns="http://www.w3.org/2000/svg">
<path fill-rule="evenodd" clip-rule="evenodd" d="M5 0V5.60838H8.53185V7.68413H5V24.7284L6.66281 25.7599V9.3473H8.51896V26.9976L10.1689 27.8485V23.6841L12.0637 24.7284V29.0862L13.7007 30.1305V25.8114L15.5827 26.8042V31.6003L16.4076 32L17.2455 31.6003V26.8042L19.1403 25.8114V30.1305L20.7902 28.9315V24.7284L22.6722 23.5681V27.8485L24.3092 26.9976V9.3473H26.204V25.8114L27.8153 24.7284V7.68413H24.3092V5.60838H27.8153V0H22.6722V3.90653H20.7773V0H19.1403V3.90653H17.2584V0H15.5827V3.90653H13.7007V0H12.0637V3.90653H10.1689V0H5ZM6.49008 1.68551V3.90841H8.51756V1.68551H6.49008ZM10.1786 5.61833V8.98932L14.3313 10.3817V17.2458H18.5084V10.3817L22.6611 8.9649V5.61833H10.1786ZM12.6947 11.6275L10.1786 10.797V21.545L12.6947 23.0596L15.2107 20.0794L12.6947 17.4168V11.6275ZM16.4076 21.3252L13.9893 23.8901L16.4076 25.5512L18.8015 23.8901L16.4076 21.3252ZM20.1695 17.4168L17.5313 20.0794L20.1695 23.0596L22.6855 21.545V10.797L20.1695 11.6275V17.4168ZM24.3221 1.68551H26.2031V3.88398H24.3221V1.68551Z" fill="black"/>
</svg>
