<svg width="512" height="512" viewBox="0 0 512 512" fill="none" xmlns="http://www.w3.org/2000/svg">
<path fill-rule="evenodd" clip-rule="evenodd" d="M74 0V89.7232H130.503V122.931H74V395.607L100.602 412.108V149.539H130.297V431.909L156.692 445.522V378.9L187.006 395.607V465.323L213.195 482.03V412.933L243.302 428.815V505.544L256.5 511.938L269.904 505.544V428.815L300.217 412.933V482.03L326.613 462.848V395.607L356.72 377.044V445.522L382.91 431.909V149.539H413.223V412.933L439 395.607V122.931H382.91V89.7232H439V0H356.72V62.4968H326.407V0H300.217V62.4968H270.11V0H243.302V62.4968H213.195V0H187.006V62.4968H156.692V0H74ZM97.8383 26.9647V62.5268H130.274V26.9647H97.8383ZM156.848 89.8823V143.812L223.283 166.087V275.899H290.108V166.087L356.543 143.421V89.8823H156.848ZM197.099 186.017L156.848 172.73V344.679L197.099 368.908L237.351 321.231L197.099 278.635V186.017ZM256.5 341.162L217.811 382.195L256.5 408.769L294.798 382.195L256.5 341.162ZM316.682 278.635L274.476 321.231L316.682 368.908L356.934 344.679V172.73L316.682 186.017V278.635ZM383.117 26.9647H413.208V62.136H383.117V26.9647Z" fill="black"/>
</svg>
